%TF.GenerationSoftware,KiCad,Pcbnew,9.0.7*%
%TF.CreationDate,2026-04-09T04:13:34-05:00*%
%TF.ProjectId,Pinball Matrix board Rev 1,50696e62-616c-46c2-904d-617472697820,rev?*%
%TF.SameCoordinates,Original*%
%TF.FileFunction,Plated,1,4,PTH,Drill*%
%TF.FilePolarity,Positive*%
%FSLAX46Y46*%
G04 Gerber Fmt 4.6, Leading zero omitted, Abs format (unit mm)*
G04 Created by KiCad (PCBNEW 9.0.7) date 2026-04-09 04:13:34*
%MOMM*%
%LPD*%
G01*
G04 APERTURE LIST*
%TA.AperFunction,ViaDrill*%
%ADD10C,0.300000*%
%TD*%
%TA.AperFunction,ComponentDrill*%
%ADD11C,0.800000*%
%TD*%
%TA.AperFunction,ViaDrill*%
%ADD12C,0.900000*%
%TD*%
%TA.AperFunction,ComponentDrill*%
%ADD13C,0.900000*%
%TD*%
%TA.AperFunction,ComponentDrill*%
%ADD14C,0.950000*%
%TD*%
%TA.AperFunction,ComponentDrill*%
%ADD15C,1.000000*%
%TD*%
%TA.AperFunction,ComponentDrill*%
%ADD16C,1.010000*%
%TD*%
%TA.AperFunction,ComponentDrill*%
%ADD17C,1.700000*%
%TD*%
%TA.AperFunction,ComponentDrill*%
%ADD18C,2.000000*%
%TD*%
%TA.AperFunction,ComponentDrill*%
%ADD19C,3.500000*%
%TD*%
G04 APERTURE END LIST*
D10*
X93210000Y-107930000D03*
X99950000Y-70120000D03*
X105313400Y-126577200D03*
X105830000Y-107160000D03*
X107170000Y-111130000D03*
X108821700Y-122657700D03*
X109567500Y-108504100D03*
X110007900Y-127160800D03*
X110037700Y-110525200D03*
X110683600Y-116910300D03*
X111007800Y-121500100D03*
X111870000Y-71790000D03*
X113740000Y-100280000D03*
X113796900Y-129003800D03*
X113840000Y-76830000D03*
X114240000Y-116760000D03*
X114500600Y-87211400D03*
X114985000Y-88504500D03*
X115010000Y-74585700D03*
X115060000Y-93200000D03*
X115568900Y-122034300D03*
X116130000Y-87460000D03*
X116790000Y-121810000D03*
X117203800Y-87776100D03*
X118635800Y-126130000D03*
X118715085Y-118443615D03*
X118931400Y-92056600D03*
X119780000Y-117390000D03*
X120302400Y-107041900D03*
X120470000Y-88890000D03*
X120859800Y-117385700D03*
X121163100Y-115510000D03*
X121815600Y-110663900D03*
X121870000Y-123020000D03*
X122170000Y-69980000D03*
X122760000Y-130400000D03*
X123820000Y-107820000D03*
X125367300Y-118062900D03*
X126167200Y-125653300D03*
X126167200Y-128668000D03*
X126369700Y-116848000D03*
X127555305Y-115205305D03*
X127713800Y-117822000D03*
X128922800Y-111924900D03*
X130535200Y-110985400D03*
X130535200Y-116879600D03*
X131670000Y-88920000D03*
X131970000Y-94670000D03*
X131973100Y-93583400D03*
X132593700Y-79828100D03*
X132633000Y-101980300D03*
X132633000Y-113932500D03*
X132633000Y-119826700D03*
X132790000Y-71540000D03*
X133730000Y-81710000D03*
X134810000Y-78850000D03*
X134935800Y-61889100D03*
X135242800Y-109828300D03*
X136421800Y-75970000D03*
X136547400Y-95647400D03*
X136812700Y-78172200D03*
X137258800Y-92590300D03*
X138038900Y-74957500D03*
X138313100Y-90357300D03*
X138663000Y-61670100D03*
X138664700Y-75573700D03*
X138842600Y-96765500D03*
X138911300Y-84461500D03*
X139060000Y-97940000D03*
X139076900Y-95340500D03*
X139129400Y-94248500D03*
X140129900Y-108214400D03*
X143670200Y-76156900D03*
X144000200Y-99310300D03*
X145730000Y-84090000D03*
X145780000Y-70550000D03*
X147602300Y-78471900D03*
X147602300Y-80575400D03*
X147916900Y-91996100D03*
X148125100Y-96222600D03*
X148298300Y-95210600D03*
X156366700Y-92974600D03*
X161118900Y-94918500D03*
X162371800Y-137556300D03*
X170069600Y-70735400D03*
X177455000Y-49096300D03*
D11*
%TO.C,C16*%
X118072400Y-66270000D03*
X120572400Y-66270000D03*
%TD*%
D12*
X100750000Y-63970000D03*
X105310000Y-129290000D03*
X105380000Y-135330000D03*
X105740000Y-78600000D03*
X105740000Y-98380000D03*
X105990000Y-70640000D03*
X113600000Y-103040000D03*
X121680000Y-76790000D03*
X122180000Y-98940000D03*
X122250000Y-90970000D03*
X123779000Y-47415000D03*
X129710000Y-85120000D03*
X129960000Y-90890000D03*
X129990000Y-99270000D03*
X131620000Y-77450000D03*
X132442000Y-47415000D03*
X141106000Y-47415000D03*
X149770000Y-47415000D03*
D13*
%TO.C,U3*%
X163470000Y-91340000D03*
X163470000Y-93880000D03*
X163470000Y-96420000D03*
X163470000Y-98960000D03*
X163470000Y-101500000D03*
X163470000Y-104040000D03*
X163470000Y-106580000D03*
X163470000Y-109120000D03*
X163470000Y-111660000D03*
X163470000Y-114200000D03*
X163470000Y-116740000D03*
X163470000Y-119280000D03*
X163470000Y-121820000D03*
X163470000Y-124360000D03*
X163470000Y-126900000D03*
X186330000Y-91340000D03*
X186330000Y-93880000D03*
X186330000Y-96420000D03*
X186330000Y-98960000D03*
X186330000Y-101500000D03*
X186330000Y-104040000D03*
X186330000Y-106580000D03*
X186330000Y-109120000D03*
X186330000Y-111660000D03*
X186330000Y-114200000D03*
X186330000Y-116740000D03*
X186330000Y-119280000D03*
X186330000Y-121820000D03*
X186330000Y-124360000D03*
X186330000Y-126900000D03*
D14*
%TO.C,J1*%
X138970000Y-65540000D03*
X141470000Y-65540000D03*
X143970000Y-65540000D03*
X146470000Y-65540000D03*
%TO.C,J2*%
X169400000Y-47350000D03*
X169400000Y-49850000D03*
X169400000Y-52350000D03*
X169400000Y-54850000D03*
D15*
%TO.C,U8*%
X129950000Y-104140000D03*
X132490000Y-104140000D03*
X135030000Y-104140000D03*
X137570000Y-104140000D03*
%TO.C,TP10*%
X157510000Y-46665000D03*
D16*
%TO.C,F1*%
X125870000Y-66820000D03*
X130920000Y-68020000D03*
D17*
%TO.C,J4*%
X96000000Y-46540000D03*
X96000000Y-50500000D03*
X96000000Y-54460000D03*
X96000000Y-58420000D03*
X96000000Y-62380000D03*
X96000000Y-66340000D03*
X96000000Y-70300000D03*
X96000000Y-74260000D03*
X96000000Y-78220000D03*
X96000000Y-82180000D03*
%TO.C,J3*%
X96000000Y-90170000D03*
X96000000Y-94130000D03*
X96000000Y-98090000D03*
X96000000Y-102050000D03*
X96000000Y-106010000D03*
X96000000Y-109970000D03*
X96000000Y-113930000D03*
X96000000Y-117890000D03*
X96000000Y-121850000D03*
X96000000Y-125810000D03*
X96000000Y-129770000D03*
X96000000Y-133730000D03*
X96000000Y-137690000D03*
D18*
%TO.C,U8*%
X122310000Y-104210000D03*
X122310000Y-127260000D03*
X145360000Y-104210000D03*
X145360000Y-127260000D03*
D19*
%TO.C,H3*%
X105220000Y-45810000D03*
%TO.C,H1*%
X186140000Y-45540000D03*
%TO.C,H2*%
X186170000Y-137840000D03*
M02*
