%TF.GenerationSoftware,KiCad,Pcbnew,9.0.7*%
%TF.CreationDate,2026-04-09T04:11:56-05:00*%
%TF.ProjectId,Pinball Matrix board Rev 1,50696e62-616c-46c2-904d-617472697820,rev?*%
%TF.SameCoordinates,Original*%
%TF.FileFunction,Soldermask,Top*%
%TF.FilePolarity,Negative*%
%FSLAX46Y46*%
G04 Gerber Fmt 4.6, Leading zero omitted, Abs format (unit mm)*
G04 Created by KiCad (PCBNEW 9.0.7) date 2026-04-09 04:11:56*
%MOMM*%
%LPD*%
G01*
G04 APERTURE LIST*
G04 Aperture macros list*
%AMRoundRect*
0 Rectangle with rounded corners*
0 $1 Rounding radius*
0 $2 $3 $4 $5 $6 $7 $8 $9 X,Y pos of 4 corners*
0 Add a 4 corners polygon primitive as box body*
4,1,4,$2,$3,$4,$5,$6,$7,$8,$9,$2,$3,0*
0 Add four circle primitives for the rounded corners*
1,1,$1+$1,$2,$3*
1,1,$1+$1,$4,$5*
1,1,$1+$1,$6,$7*
1,1,$1+$1,$8,$9*
0 Add four rect primitives between the rounded corners*
20,1,$1+$1,$2,$3,$4,$5,0*
20,1,$1+$1,$4,$5,$6,$7,0*
20,1,$1+$1,$6,$7,$8,$9,0*
20,1,$1+$1,$8,$9,$2,$3,0*%
G04 Aperture macros list end*
%ADD10RoundRect,0.250000X0.350000X-0.850000X0.350000X0.850000X-0.350000X0.850000X-0.350000X-0.850000X0*%
%ADD11RoundRect,0.249997X2.650003X-2.950003X2.650003X2.950003X-2.650003X2.950003X-2.650003X-2.950003X0*%
%ADD12RoundRect,0.150000X0.825000X0.150000X-0.825000X0.150000X-0.825000X-0.150000X0.825000X-0.150000X0*%
%ADD13R,2.290000X3.000000*%
%ADD14RoundRect,0.064250X0.807750X0.192750X-0.807750X0.192750X-0.807750X-0.192750X0.807750X-0.192750X0*%
%ADD15RoundRect,0.102000X1.100000X1.950000X-1.100000X1.950000X-1.100000X-1.950000X1.100000X-1.950000X0*%
%ADD16C,1.724000*%
%ADD17RoundRect,0.102000X0.890000X-1.715000X0.890000X1.715000X-0.890000X1.715000X-0.890000X-1.715000X0*%
%ADD18RoundRect,0.102000X1.715000X0.890000X-1.715000X0.890000X-1.715000X-0.890000X1.715000X-0.890000X0*%
%ADD19RoundRect,0.267317X-0.280683X-0.470683X0.280683X-0.470683X0.280683X0.470683X-0.280683X0.470683X0*%
%ADD20RoundRect,0.267317X0.470683X-0.280683X0.470683X0.280683X-0.470683X0.280683X-0.470683X-0.280683X0*%
%ADD21RoundRect,0.269000X0.494000X-0.269000X0.494000X0.269000X-0.494000X0.269000X-0.494000X-0.269000X0*%
%ADD22RoundRect,0.266521X-0.671479X0.346479X-0.671479X-0.346479X0.671479X-0.346479X0.671479X0.346479X0*%
%ADD23RoundRect,0.150000X0.385000X0.150000X-0.385000X0.150000X-0.385000X-0.150000X0.385000X-0.150000X0*%
%ADD24RoundRect,0.267317X-0.470683X0.280683X-0.470683X-0.280683X0.470683X-0.280683X0.470683X0.280683X0*%
%ADD25RoundRect,0.269000X-0.269000X-0.494000X0.269000X-0.494000X0.269000X0.494000X-0.269000X0.494000X0*%
%ADD26RoundRect,0.267317X0.280683X0.470683X-0.280683X0.470683X-0.280683X-0.470683X0.280683X-0.470683X0*%
%ADD27RoundRect,0.261500X0.476500X-0.261500X0.476500X0.261500X-0.476500X0.261500X-0.476500X-0.261500X0*%
%ADD28RoundRect,0.261500X-0.261500X-0.476500X0.261500X-0.476500X0.261500X0.476500X-0.261500X0.476500X0*%
%ADD29RoundRect,0.269000X0.269000X0.494000X-0.269000X0.494000X-0.269000X-0.494000X0.269000X-0.494000X0*%
%ADD30RoundRect,0.269000X-0.494000X0.269000X-0.494000X-0.269000X0.494000X-0.269000X0.494000X0.269000X0*%
%ADD31RoundRect,0.266521X0.671479X-0.346479X0.671479X0.346479X-0.671479X0.346479X-0.671479X-0.346479X0*%
%ADD32R,1.700000X1.700000*%
%ADD33C,1.700000*%
%ADD34C,3.500000*%
%ADD35C,3.540000*%
%ADD36RoundRect,0.250000X-0.600000X-0.725000X0.600000X-0.725000X0.600000X0.725000X-0.600000X0.725000X0*%
%ADD37O,1.700000X1.950000*%
%ADD38RoundRect,0.169000X-0.219000X0.169000X-0.219000X-0.169000X0.219000X-0.169000X0.219000X0.169000X0*%
%ADD39RoundRect,0.250000X-0.700000X0.275000X-0.700000X-0.275000X0.700000X-0.275000X0.700000X0.275000X0*%
%ADD40R,0.500000X0.600000*%
%ADD41C,7.000000*%
%ADD42RoundRect,0.169000X0.219000X-0.169000X0.219000X0.169000X-0.219000X0.169000X-0.219000X-0.169000X0*%
%ADD43O,1.970000X0.600000*%
%ADD44RoundRect,0.261500X-0.476500X0.261500X-0.476500X-0.261500X0.476500X-0.261500X0.476500X0.261500X0*%
%ADD45RoundRect,0.250000X0.700000X-0.275000X0.700000X0.275000X-0.700000X0.275000X-0.700000X-0.275000X0*%
%ADD46R,1.500000X1.500000*%
%ADD47C,1.500000*%
%ADD48RoundRect,0.250000X1.800000X-1.330000X1.800000X1.330000X-1.800000X1.330000X-1.800000X-1.330000X0*%
%ADD49O,4.100000X3.160000*%
%ADD50RoundRect,0.250000X0.550000X0.550000X-0.550000X0.550000X-0.550000X-0.550000X0.550000X-0.550000X0*%
%ADD51C,1.600000*%
%ADD52RoundRect,0.250000X0.725000X-0.600000X0.725000X0.600000X-0.725000X0.600000X-0.725000X-0.600000X0*%
%ADD53O,1.950000X1.700000*%
%TA.AperFunction,Profile*%
%ADD54C,0.050000*%
%TD*%
G04 APERTURE END LIST*
D10*
%TO.C,L1*%
X147490000Y-53715000D03*
D11*
X149770000Y-47415000D03*
D10*
X152050000Y-53715000D03*
%TD*%
%TO.C,L2*%
X121498800Y-53715000D03*
D11*
X123778800Y-47415000D03*
D10*
X126058800Y-53715000D03*
%TD*%
%TO.C,L3*%
X112835000Y-53715000D03*
D11*
X115115000Y-47415000D03*
D10*
X117395000Y-53715000D03*
%TD*%
%TO.C,L4*%
X130162500Y-53715000D03*
D11*
X132442500Y-47415000D03*
D10*
X134722500Y-53715000D03*
%TD*%
%TO.C,L5*%
X138826300Y-53715000D03*
D11*
X141106300Y-47415000D03*
D10*
X143386300Y-53715000D03*
%TD*%
D12*
%TO.C,U1*%
X116925000Y-127305000D03*
X116925000Y-126035000D03*
X116925000Y-124765000D03*
X116925000Y-123495000D03*
X111975000Y-123495000D03*
X111975000Y-124765000D03*
X111975000Y-126035000D03*
X111975000Y-127305000D03*
D13*
X114450000Y-125400000D03*
%TD*%
D12*
%TO.C,U2*%
X116855000Y-111395000D03*
X116855000Y-110125000D03*
X116855000Y-108855000D03*
X116855000Y-107585000D03*
X111905000Y-107585000D03*
X111905000Y-108855000D03*
X111905000Y-110125000D03*
X111905000Y-111395000D03*
D13*
X114380000Y-109490000D03*
%TD*%
D14*
%TO.C,U7*%
X129690000Y-81650000D03*
X129690000Y-81150000D03*
X129690000Y-80650000D03*
X129690000Y-80150000D03*
X129690000Y-79650000D03*
X129690000Y-79150000D03*
X129690000Y-78650000D03*
X129690000Y-78150000D03*
X124420000Y-78150000D03*
X124420000Y-78650000D03*
X124420000Y-79150000D03*
X124420000Y-79650000D03*
X124420000Y-80150000D03*
X124420000Y-80650000D03*
X124420000Y-81150000D03*
X124420000Y-81650000D03*
D15*
X127055000Y-79900000D03*
%TD*%
D16*
%TO.C,F1*%
X130920000Y-68020000D03*
X125870000Y-66820000D03*
%TD*%
D17*
%TO.C,TP1*%
X160370000Y-136540000D03*
%TD*%
%TO.C,TP2*%
X165300000Y-136540000D03*
%TD*%
D18*
%TO.C,TP3*%
X151170000Y-109110000D03*
%TD*%
%TO.C,TP4*%
X157300000Y-111850000D03*
%TD*%
%TO.C,TP5*%
X151170000Y-114270000D03*
%TD*%
D17*
%TO.C,TP6*%
X171250000Y-136540000D03*
%TD*%
D18*
%TO.C,TP7*%
X157300000Y-119430000D03*
%TD*%
%TO.C,TP8*%
X151170000Y-121910000D03*
%TD*%
%TO.C,TP9*%
X157300000Y-124430000D03*
%TD*%
D17*
%TO.C,TP11*%
X175790000Y-49710000D03*
%TD*%
%TO.C,TP12*%
X179120000Y-49710000D03*
%TD*%
D19*
%TO.C,R28*%
X112320000Y-68980000D03*
X114140000Y-68980000D03*
%TD*%
D20*
%TO.C,R69*%
X106000000Y-73980000D03*
X106000000Y-72160000D03*
%TD*%
D21*
%TO.C,C26*%
X108760000Y-137910000D03*
X108760000Y-136010000D03*
%TD*%
D22*
%TO.C,C2*%
X168638300Y-70700000D03*
X168638300Y-73660000D03*
%TD*%
D23*
%TO.C,D7*%
X120280000Y-114560000D03*
X120280000Y-116460000D03*
X122760000Y-115510000D03*
%TD*%
D19*
%TO.C,R27*%
X149550000Y-97800000D03*
X151370000Y-97800000D03*
%TD*%
D24*
%TO.C,R5*%
X113040000Y-119100000D03*
X113040000Y-120920000D03*
%TD*%
D25*
%TO.C,C24*%
X127470000Y-87770000D03*
X129370000Y-87770000D03*
%TD*%
D26*
%TO.C,R58*%
X117830000Y-100490000D03*
X116010000Y-100490000D03*
%TD*%
%TO.C,R43*%
X114010000Y-74470000D03*
X112190000Y-74470000D03*
%TD*%
D27*
%TO.C,D9*%
X178111700Y-73090000D03*
X178111700Y-71210000D03*
%TD*%
D28*
%TO.C,D4*%
X112350000Y-65970000D03*
X114230000Y-65970000D03*
%TD*%
D29*
%TO.C,C23*%
X126520000Y-74750000D03*
X124620000Y-74750000D03*
%TD*%
D30*
%TO.C,C20*%
X145850000Y-85840000D03*
X145850000Y-87740000D03*
%TD*%
D25*
%TO.C,C15*%
X128430000Y-74670000D03*
X130330000Y-74670000D03*
%TD*%
D24*
%TO.C,R53*%
X121400600Y-58505000D03*
X121400600Y-60325000D03*
%TD*%
D21*
%TO.C,C5*%
X171466700Y-79880000D03*
X171466700Y-77980000D03*
%TD*%
D26*
%TO.C,R19*%
X129400000Y-110690000D03*
X127580000Y-110690000D03*
%TD*%
D31*
%TO.C,C34*%
X184330000Y-80700000D03*
X184330000Y-77740000D03*
%TD*%
%TO.C,C1*%
X165690000Y-80410000D03*
X165690000Y-77450000D03*
%TD*%
D32*
%TO.C,U8*%
X129950000Y-104140000D03*
D33*
X132490000Y-104140000D03*
X135030000Y-104140000D03*
X137570000Y-104140000D03*
D34*
X145360000Y-104210000D03*
X122310000Y-104210000D03*
X122310000Y-127260000D03*
D35*
X145360000Y-127260000D03*
%TD*%
D24*
%TO.C,R26*%
X148680000Y-85870000D03*
X148680000Y-87690000D03*
%TD*%
D26*
%TO.C,R16*%
X129400000Y-119540000D03*
X127580000Y-119540000D03*
%TD*%
D29*
%TO.C,C22*%
X125760000Y-87810000D03*
X123860000Y-87810000D03*
%TD*%
D23*
%TO.C,D8*%
X108207500Y-114830000D03*
X108207500Y-116730000D03*
X110687500Y-115780000D03*
%TD*%
D36*
%TO.C,J1*%
X138970000Y-65540000D03*
D37*
X141470000Y-65540000D03*
X143970000Y-65540000D03*
X146470000Y-65540000D03*
%TD*%
D38*
%TO.C,D10*%
X176040000Y-72850000D03*
X176040000Y-71450000D03*
%TD*%
D26*
%TO.C,R14*%
X129400000Y-125440000D03*
X127580000Y-125440000D03*
%TD*%
D24*
%TO.C,R1*%
X158990000Y-58660000D03*
X158990000Y-60480000D03*
%TD*%
D30*
%TO.C,C27*%
X108790000Y-129910000D03*
X108790000Y-131810000D03*
%TD*%
D22*
%TO.C,C6*%
X162860000Y-70700000D03*
X162860000Y-73660000D03*
%TD*%
D26*
%TO.C,R35*%
X113960000Y-88930000D03*
X112140000Y-88930000D03*
%TD*%
D14*
%TO.C,U6*%
X129155000Y-96400000D03*
X129155000Y-95900000D03*
X129155000Y-95400000D03*
X129155000Y-94900000D03*
X129155000Y-94400000D03*
X129155000Y-93900000D03*
X129155000Y-93400000D03*
X129155000Y-92900000D03*
X123885000Y-92900000D03*
X123885000Y-93400000D03*
X123885000Y-93900000D03*
X123885000Y-94400000D03*
X123885000Y-94900000D03*
X123885000Y-95400000D03*
X123885000Y-95900000D03*
X123885000Y-96400000D03*
D15*
X126520000Y-94650000D03*
%TD*%
D20*
%TO.C,R22*%
X121390000Y-133360000D03*
X121390000Y-131540000D03*
%TD*%
D39*
%TO.C,FB3*%
X103650000Y-99410000D03*
X103650000Y-102550000D03*
%TD*%
D24*
%TO.C,R8*%
X117990000Y-114870000D03*
X117990000Y-116690000D03*
%TD*%
D39*
%TO.C,FB2*%
X103570000Y-129290000D03*
X103570000Y-132430000D03*
%TD*%
%TO.C,FB6*%
X103540000Y-71560000D03*
X103540000Y-74700000D03*
%TD*%
D19*
%TO.C,R30*%
X133820000Y-94740000D03*
X135640000Y-94740000D03*
%TD*%
D26*
%TO.C,R44*%
X117830000Y-83210000D03*
X116010000Y-83210000D03*
%TD*%
%TO.C,R62*%
X117830000Y-80330000D03*
X116010000Y-80330000D03*
%TD*%
D30*
%TO.C,C9*%
X103590000Y-119260000D03*
X103590000Y-121160000D03*
%TD*%
D32*
%TO.C,TP10*%
X157510000Y-46665000D03*
%TD*%
D23*
%TO.C,D5*%
X120250000Y-119130000D03*
X120250000Y-121030000D03*
X122730000Y-120080000D03*
%TD*%
D26*
%TO.C,R41*%
X135640000Y-77530000D03*
X133820000Y-77530000D03*
%TD*%
D21*
%TO.C,C30*%
X108790000Y-82280000D03*
X108790000Y-80380000D03*
%TD*%
D20*
%TO.C,R55*%
X117107800Y-60325000D03*
X117107800Y-58505000D03*
%TD*%
%TO.C,R64*%
X106100000Y-137870000D03*
X106100000Y-136050000D03*
%TD*%
D21*
%TO.C,C17*%
X108760000Y-127040000D03*
X108760000Y-125140000D03*
%TD*%
D24*
%TO.C,R51*%
X134278900Y-58505000D03*
X134278900Y-60325000D03*
%TD*%
D26*
%TO.C,R42*%
X117830000Y-74570000D03*
X116010000Y-74570000D03*
%TD*%
D40*
%TO.C,D1*%
X121170000Y-72390000D03*
X121970000Y-72390000D03*
%TD*%
D26*
%TO.C,R46*%
X135640000Y-97640000D03*
X133820000Y-97640000D03*
%TD*%
D24*
%TO.C,R9*%
X106060000Y-119200000D03*
X106060000Y-121020000D03*
%TD*%
D26*
%TO.C,R39*%
X135640000Y-80170000D03*
X133820000Y-80170000D03*
%TD*%
D39*
%TO.C,F2*%
X175190000Y-54950000D03*
X175190000Y-58090000D03*
%TD*%
D21*
%TO.C,C28*%
X108680000Y-102040000D03*
X108680000Y-100140000D03*
%TD*%
D24*
%TO.C,R57*%
X142864400Y-58505000D03*
X142864400Y-60325000D03*
%TD*%
%TO.C,R23*%
X122570000Y-107850000D03*
X122570000Y-109670000D03*
%TD*%
%TO.C,R2*%
X156040000Y-58660000D03*
X156040000Y-60480000D03*
%TD*%
%TO.C,R12*%
X180750000Y-71270000D03*
X180750000Y-73090000D03*
%TD*%
D30*
%TO.C,C10*%
X103590000Y-114800000D03*
X103590000Y-116700000D03*
%TD*%
D29*
%TO.C,C21*%
X143777500Y-70420000D03*
X141877500Y-70420000D03*
%TD*%
D26*
%TO.C,R59*%
X117830000Y-94730000D03*
X116010000Y-94730000D03*
%TD*%
%TO.C,R15*%
X129400000Y-122490000D03*
X127580000Y-122490000D03*
%TD*%
D30*
%TO.C,C32*%
X108510000Y-64360000D03*
X108510000Y-66260000D03*
%TD*%
D20*
%TO.C,R68*%
X106000000Y-82310000D03*
X106000000Y-80490000D03*
%TD*%
D26*
%TO.C,R60*%
X117830000Y-91850000D03*
X116010000Y-91850000D03*
%TD*%
D20*
%TO.C,R6*%
X112870000Y-116690000D03*
X112870000Y-114870000D03*
%TD*%
%TO.C,R66*%
X106000000Y-101890000D03*
X106000000Y-100070000D03*
%TD*%
D41*
%TO.C,H2*%
X186170000Y-137840000D03*
%TD*%
D26*
%TO.C,R61*%
X117830000Y-86090000D03*
X116010000Y-86090000D03*
%TD*%
%TO.C,R63*%
X117830000Y-77450000D03*
X116010000Y-77450000D03*
%TD*%
D41*
%TO.C,H1*%
X186140000Y-45540000D03*
%TD*%
D20*
%TO.C,R24*%
X120300000Y-109850000D03*
X120300000Y-108030000D03*
%TD*%
D26*
%TO.C,R34*%
X117830000Y-88970000D03*
X116010000Y-88970000D03*
%TD*%
D24*
%TO.C,R56*%
X129986100Y-58505000D03*
X129986100Y-60325000D03*
%TD*%
%TO.C,R10*%
X105920000Y-114870000D03*
X105920000Y-116690000D03*
%TD*%
D21*
%TO.C,C19*%
X167720000Y-127080000D03*
X167720000Y-125180000D03*
%TD*%
%TO.C,C7*%
X115690000Y-121060000D03*
X115690000Y-119160000D03*
%TD*%
D39*
%TO.C,FB5*%
X103650000Y-79710000D03*
X103650000Y-82850000D03*
%TD*%
D19*
%TO.C,R31*%
X136890000Y-109590000D03*
X138710000Y-109590000D03*
%TD*%
D23*
%TO.C,D6*%
X108280000Y-119200000D03*
X108280000Y-121100000D03*
X110760000Y-120150000D03*
%TD*%
D31*
%TO.C,C3*%
X168653300Y-80410000D03*
X168653300Y-77450000D03*
%TD*%
D19*
%TO.C,R32*%
X133820000Y-91730000D03*
X135640000Y-91730000D03*
%TD*%
D20*
%TO.C,R70*%
X106000000Y-66220000D03*
X106000000Y-64400000D03*
%TD*%
D42*
%TO.C,D2*%
X176093300Y-78230000D03*
X176093300Y-79630000D03*
%TD*%
D26*
%TO.C,R47*%
X135640000Y-86030000D03*
X133820000Y-86030000D03*
%TD*%
D24*
%TO.C,R54*%
X151450000Y-58505000D03*
X151450000Y-60325000D03*
%TD*%
D39*
%TO.C,FB1*%
X103620000Y-135330000D03*
X103620000Y-138470000D03*
%TD*%
D25*
%TO.C,C14*%
X128400000Y-72610000D03*
X130300000Y-72610000D03*
%TD*%
D26*
%TO.C,R45*%
X114010000Y-83130000D03*
X112190000Y-83130000D03*
%TD*%
D41*
%TO.C,H3*%
X105220000Y-45810000D03*
%TD*%
D26*
%TO.C,R33*%
X135570000Y-89500000D03*
X133750000Y-89500000D03*
%TD*%
D43*
%TO.C,U5*%
X139897500Y-73640000D03*
X139897500Y-74920000D03*
X139897500Y-76180000D03*
X139897500Y-77450000D03*
X139897500Y-78730000D03*
X139897500Y-80000000D03*
X139897500Y-81260000D03*
X139897500Y-82540000D03*
X145377500Y-82540000D03*
X145377500Y-81260000D03*
X145377500Y-80000000D03*
X145377500Y-78730000D03*
X145377500Y-77450000D03*
X145377500Y-76180000D03*
X145377500Y-74920000D03*
X145377500Y-73640000D03*
%TD*%
D30*
%TO.C,C13*%
X174145000Y-71230000D03*
X174145000Y-73130000D03*
%TD*%
D26*
%TO.C,R13*%
X129400000Y-128390000D03*
X127580000Y-128390000D03*
%TD*%
D21*
%TO.C,C18*%
X108930000Y-111420000D03*
X108930000Y-109520000D03*
%TD*%
D43*
%TO.C,U4*%
X140557500Y-90030000D03*
X140557500Y-91310000D03*
X140557500Y-92570000D03*
X140557500Y-93840000D03*
X140557500Y-95120000D03*
X140557500Y-96390000D03*
X140557500Y-97650000D03*
X140557500Y-98930000D03*
X146037500Y-98930000D03*
X146037500Y-97650000D03*
X146037500Y-96390000D03*
X146037500Y-95120000D03*
X146037500Y-93840000D03*
X146037500Y-92570000D03*
X146037500Y-91310000D03*
X146037500Y-90030000D03*
%TD*%
D24*
%TO.C,R21*%
X123340000Y-131430000D03*
X123340000Y-133250000D03*
%TD*%
D20*
%TO.C,R11*%
X180690000Y-79840000D03*
X180690000Y-78020000D03*
%TD*%
%TO.C,R7*%
X117990000Y-121020000D03*
X117990000Y-119200000D03*
%TD*%
D21*
%TO.C,C11*%
X174130000Y-79880000D03*
X174130000Y-77980000D03*
%TD*%
D24*
%TO.C,R67*%
X106000000Y-92370000D03*
X106000000Y-94190000D03*
%TD*%
D22*
%TO.C,C4*%
X165660000Y-70700000D03*
X165660000Y-73660000D03*
%TD*%
D44*
%TO.C,D3*%
X178066700Y-78020000D03*
X178066700Y-79900000D03*
%TD*%
D30*
%TO.C,C29*%
X108510000Y-92380000D03*
X108510000Y-94280000D03*
%TD*%
D20*
%TO.C,R4*%
X124620000Y-116620000D03*
X124620000Y-114800000D03*
%TD*%
D26*
%TO.C,R20*%
X129400000Y-107740000D03*
X127580000Y-107740000D03*
%TD*%
D21*
%TO.C,C31*%
X108510000Y-74020000D03*
X108510000Y-72120000D03*
%TD*%
D45*
%TO.C,FB4*%
X103650000Y-94850000D03*
X103650000Y-91710000D03*
%TD*%
D30*
%TO.C,C12*%
X171466700Y-71230000D03*
X171466700Y-73130000D03*
%TD*%
D24*
%TO.C,R52*%
X138571700Y-58505000D03*
X138571700Y-60325000D03*
%TD*%
D46*
%TO.C,U3*%
X163470000Y-91340000D03*
D47*
X163470000Y-93880000D03*
X163470000Y-96420000D03*
X163470000Y-98960000D03*
X163470000Y-101500000D03*
X163470000Y-104040000D03*
X163470000Y-106580000D03*
X163470000Y-109120000D03*
X163470000Y-111660000D03*
X163470000Y-114200000D03*
X163470000Y-116740000D03*
X163470000Y-119280000D03*
X163470000Y-121820000D03*
X163470000Y-124360000D03*
X163470000Y-126900000D03*
X186330000Y-126900000D03*
X186330000Y-124360000D03*
X186330000Y-121820000D03*
X186330000Y-119280000D03*
X186330000Y-116740000D03*
X186330000Y-114200000D03*
X186330000Y-111660000D03*
X186330000Y-109120000D03*
X186330000Y-106580000D03*
X186330000Y-104040000D03*
X186330000Y-101500000D03*
X186330000Y-98960000D03*
X186330000Y-96420000D03*
X186330000Y-93880000D03*
X186330000Y-91340000D03*
%TD*%
D19*
%TO.C,R40*%
X133820000Y-74410000D03*
X135640000Y-74410000D03*
%TD*%
D48*
%TO.C,J3*%
X96000000Y-137690000D03*
D49*
X96000000Y-133730000D03*
X96000000Y-129770000D03*
X96000000Y-125810000D03*
X96000000Y-121850000D03*
X96000000Y-117890000D03*
X96000000Y-113930000D03*
X96000000Y-109970000D03*
X96000000Y-106010000D03*
X96000000Y-102050000D03*
X96000000Y-98090000D03*
X96000000Y-94130000D03*
X96000000Y-90170000D03*
%TD*%
D20*
%TO.C,R49*%
X147157200Y-60325000D03*
X147157200Y-58505000D03*
%TD*%
D26*
%TO.C,R17*%
X129400000Y-116590000D03*
X127580000Y-116590000D03*
%TD*%
D24*
%TO.C,R48*%
X125693300Y-58505000D03*
X125693300Y-60325000D03*
%TD*%
D20*
%TO.C,R65*%
X106030000Y-131830000D03*
X106030000Y-130010000D03*
%TD*%
D29*
%TO.C,C25*%
X126430000Y-72440000D03*
X124530000Y-72440000D03*
%TD*%
D26*
%TO.C,R18*%
X129400000Y-113640000D03*
X127580000Y-113640000D03*
%TD*%
D19*
%TO.C,R36*%
X116010000Y-97610000D03*
X117830000Y-97610000D03*
%TD*%
D30*
%TO.C,C8*%
X115590000Y-114800000D03*
X115590000Y-116700000D03*
%TD*%
D20*
%TO.C,R50*%
X112815000Y-60325000D03*
X112815000Y-58505000D03*
%TD*%
D50*
%TO.C,C16*%
X120572400Y-66270000D03*
D51*
X118072400Y-66270000D03*
%TD*%
D26*
%TO.C,R37*%
X113960000Y-94850000D03*
X112140000Y-94850000D03*
%TD*%
D52*
%TO.C,J2*%
X169400000Y-54850000D03*
D53*
X169400000Y-52350000D03*
X169400000Y-49850000D03*
X169400000Y-47350000D03*
%TD*%
D20*
%TO.C,R25*%
X159390000Y-96090000D03*
X159390000Y-94270000D03*
%TD*%
D24*
%TO.C,R3*%
X124620000Y-119100000D03*
X124620000Y-120920000D03*
%TD*%
D39*
%TO.C,FB7*%
X103150000Y-63750000D03*
X103150000Y-66890000D03*
%TD*%
D19*
%TO.C,R29*%
X149760000Y-81780000D03*
X151580000Y-81780000D03*
%TD*%
%TO.C,R38*%
X133820000Y-83230000D03*
X135640000Y-83230000D03*
%TD*%
D48*
%TO.C,J4*%
X96000000Y-82180000D03*
D49*
X96000000Y-78220000D03*
X96000000Y-74260000D03*
X96000000Y-70300000D03*
X96000000Y-66340000D03*
X96000000Y-62380000D03*
X96000000Y-58420000D03*
X96000000Y-54460000D03*
X96000000Y-50500000D03*
X96000000Y-46540000D03*
%TD*%
D54*
X190000000Y-44830000D02*
X190000000Y-138830000D01*
X90000000Y-138830000D02*
X90000000Y-44830000D01*
X187000000Y-141830000D02*
X93000000Y-141830000D01*
X93000000Y-141830000D02*
G75*
G02*
X90000000Y-138830000I0J3000000D01*
G01*
X187000000Y-41830000D02*
G75*
G02*
X190000000Y-44830000I0J-3000000D01*
G01*
X93000000Y-41830000D02*
X187000000Y-41830000D01*
X90000000Y-44830000D02*
G75*
G02*
X93000000Y-41830000I3000000J0D01*
G01*
X190000000Y-138830000D02*
G75*
G02*
X187000000Y-141830000I-3000000J0D01*
G01*
M02*
