%TF.GenerationSoftware,KiCad,Pcbnew,9.0.7*%
%TF.CreationDate,2026-04-09T04:11:55-05:00*%
%TF.ProjectId,Pinball Matrix board Rev 1,50696e62-616c-46c2-904d-617472697820,rev?*%
%TF.SameCoordinates,Original*%
%TF.FileFunction,Copper,L3,Inr*%
%TF.FilePolarity,Positive*%
%FSLAX46Y46*%
G04 Gerber Fmt 4.6, Leading zero omitted, Abs format (unit mm)*
G04 Created by KiCad (PCBNEW 9.0.7) date 2026-04-09 04:11:55*
%MOMM*%
%LPD*%
G01*
G04 APERTURE LIST*
G04 Aperture macros list*
%AMRoundRect*
0 Rectangle with rounded corners*
0 $1 Rounding radius*
0 $2 $3 $4 $5 $6 $7 $8 $9 X,Y pos of 4 corners*
0 Add a 4 corners polygon primitive as box body*
4,1,4,$2,$3,$4,$5,$6,$7,$8,$9,$2,$3,0*
0 Add four circle primitives for the rounded corners*
1,1,$1+$1,$2,$3*
1,1,$1+$1,$4,$5*
1,1,$1+$1,$6,$7*
1,1,$1+$1,$8,$9*
0 Add four rect primitives between the rounded corners*
20,1,$1+$1,$2,$3,$4,$5,0*
20,1,$1+$1,$4,$5,$6,$7,0*
20,1,$1+$1,$6,$7,$8,$9,0*
20,1,$1+$1,$8,$9,$2,$3,0*%
G04 Aperture macros list end*
%TA.AperFunction,ComponentPad*%
%ADD10C,1.520000*%
%TD*%
%TA.AperFunction,ComponentPad*%
%ADD11R,1.700000X1.700000*%
%TD*%
%TA.AperFunction,ComponentPad*%
%ADD12C,1.700000*%
%TD*%
%TA.AperFunction,ComponentPad*%
%ADD13C,3.500000*%
%TD*%
%TA.AperFunction,ComponentPad*%
%ADD14C,3.540000*%
%TD*%
%TA.AperFunction,ComponentPad*%
%ADD15RoundRect,0.250000X-0.600000X-0.725000X0.600000X-0.725000X0.600000X0.725000X-0.600000X0.725000X0*%
%TD*%
%TA.AperFunction,ComponentPad*%
%ADD16O,1.700000X1.950000*%
%TD*%
%TA.AperFunction,ComponentPad*%
%ADD17C,7.000000*%
%TD*%
%TA.AperFunction,ComponentPad*%
%ADD18C,1.500000*%
%TD*%
%TA.AperFunction,ComponentPad*%
%ADD19RoundRect,0.250000X1.800000X-1.330000X1.800000X1.330000X-1.800000X1.330000X-1.800000X-1.330000X0*%
%TD*%
%TA.AperFunction,ComponentPad*%
%ADD20O,4.100000X3.160000*%
%TD*%
%TA.AperFunction,ComponentPad*%
%ADD21RoundRect,0.250000X0.550000X0.550000X-0.550000X0.550000X-0.550000X-0.550000X0.550000X-0.550000X0*%
%TD*%
%TA.AperFunction,ComponentPad*%
%ADD22C,1.600000*%
%TD*%
%TA.AperFunction,ComponentPad*%
%ADD23RoundRect,0.250000X0.725000X-0.600000X0.725000X0.600000X-0.725000X0.600000X-0.725000X-0.600000X0*%
%TD*%
%TA.AperFunction,ComponentPad*%
%ADD24O,1.950000X1.700000*%
%TD*%
%TA.AperFunction,ViaPad*%
%ADD25C,0.600000*%
%TD*%
%TA.AperFunction,ViaPad*%
%ADD26C,1.200000*%
%TD*%
%TA.AperFunction,Conductor*%
%ADD27C,0.300000*%
%TD*%
%TA.AperFunction,Profile*%
%ADD28C,0.050000*%
%TD*%
G04 APERTURE END LIST*
D10*
%TO.N,Net-(F1-Pad1)*%
%TO.C,F1*%
X130920000Y-68020000D03*
%TO.N,+18vdc*%
X125870000Y-66820000D03*
%TD*%
D11*
%TO.N,GND*%
%TO.C,U8*%
X129950000Y-104140000D03*
D12*
%TO.N,+3.3V*%
X132490000Y-104140000D03*
%TO.N,I\u00B2C SCL Display*%
X135030000Y-104140000D03*
%TO.N,I\u00B2C SDA Display*%
X137570000Y-104140000D03*
D13*
%TO.N,GND*%
X145360000Y-104210000D03*
X122310000Y-104210000D03*
X122310000Y-127260000D03*
D14*
X145360000Y-127260000D03*
%TD*%
D15*
%TO.N,GND*%
%TO.C,J1*%
X138970000Y-65540000D03*
D16*
%TO.N,Net-(F1-Pad1)*%
X141470000Y-65540000D03*
X143970000Y-65540000D03*
%TO.N,GND*%
X146470000Y-65540000D03*
%TD*%
D11*
%TO.N,Net-(R49-Pad2)*%
%TO.C,TP10*%
X157510000Y-46665000D03*
%TD*%
D17*
%TO.N,GND*%
%TO.C,H2*%
X186170000Y-137840000D03*
%TD*%
%TO.N,GND*%
%TO.C,H1*%
X186140000Y-45540000D03*
%TD*%
%TO.N,GND*%
%TO.C,H3*%
X105220000Y-45810000D03*
%TD*%
D18*
%TO.N,Fault_RST 5-8*%
%TO.C,U3*%
X163470000Y-101500000D03*
%TO.N,I\u00B2C SCL Display*%
X163470000Y-104040000D03*
%TO.N,I\u00B2C SDA Display*%
X163470000Y-106580000D03*
%TO.N,VCC_5V*%
X163470000Y-126900000D03*
X186330000Y-126900000D03*
%TO.N,Sw_Col_0*%
X186330000Y-119280000D03*
%TO.N,Sw_Col_1*%
X186330000Y-116740000D03*
%TO.N,Sw_Col_2*%
X186330000Y-114200000D03*
%TO.N,Sw_Col_3*%
X186330000Y-111660000D03*
%TO.N,S_CLK*%
X186330000Y-109120000D03*
%TO.N,S_latch*%
X186330000Y-106580000D03*
%TO.N,S_Data*%
X186330000Y-104040000D03*
%TD*%
D19*
%TO.N,MX1*%
%TO.C,J3*%
X96000000Y-137690000D03*
D20*
%TO.N,MX2*%
X96000000Y-133730000D03*
X96000000Y-129770000D03*
%TO.N,SW_3*%
X96000000Y-125810000D03*
%TO.N,SW_2*%
X96000000Y-121850000D03*
%TO.N,SW_1*%
X96000000Y-117890000D03*
%TO.N,SW_0*%
X96000000Y-113930000D03*
%TO.N,unconnected-(J3-Pin_8-Pad8)*%
X96000000Y-109970000D03*
%TO.N,unconnected-(J3-Pin_9-Pad9)*%
X96000000Y-106010000D03*
%TO.N,MX3*%
X96000000Y-102050000D03*
X96000000Y-98090000D03*
%TO.N,MX4*%
X96000000Y-94130000D03*
X96000000Y-90170000D03*
%TD*%
D21*
%TO.N,+18vdc*%
%TO.C,C16*%
X120572400Y-66270000D03*
D22*
%TO.N,GND*%
X118072400Y-66270000D03*
%TD*%
D23*
%TO.N,Net-(F2-Pad1)*%
%TO.C,J2*%
X169400000Y-54850000D03*
D24*
%TO.N,GND*%
X169400000Y-52350000D03*
%TO.N,I\u00B2C SCL*%
X169400000Y-49850000D03*
%TO.N,I\u00B2C SDA*%
X169400000Y-47350000D03*
%TD*%
D19*
%TO.N,MX5*%
%TO.C,J4*%
X96000000Y-82180000D03*
D20*
X96000000Y-78220000D03*
%TO.N,MX6*%
X96000000Y-74260000D03*
X96000000Y-70300000D03*
%TO.N,MX7*%
X96000000Y-66340000D03*
%TO.N,LD3*%
X96000000Y-62380000D03*
%TO.N,LD7*%
X96000000Y-58420000D03*
%TO.N,LD6*%
X96000000Y-54460000D03*
%TO.N,LD4*%
X96000000Y-50500000D03*
%TO.N,LD5*%
X96000000Y-46540000D03*
%TD*%
D25*
%TO.N,Net-(R14-Pad2)*%
X127555305Y-115205305D03*
%TO.N,+3.3V*%
X132633000Y-119826700D03*
%TO.N,GND*%
X120470000Y-88890000D03*
X121870000Y-123020000D03*
X105830000Y-107160000D03*
X131970000Y-94670000D03*
X93210000Y-107930000D03*
X131670000Y-88920000D03*
X107170000Y-111130000D03*
X116790000Y-121810000D03*
X122760000Y-130400000D03*
X122170000Y-69980000D03*
X99950000Y-70120000D03*
X111870000Y-71790000D03*
X145730000Y-84090000D03*
X119780000Y-117390000D03*
X134810000Y-78850000D03*
X133730000Y-81710000D03*
X116130000Y-87460000D03*
X115060000Y-93200000D03*
X113740000Y-100280000D03*
X118715085Y-118443615D03*
X145780000Y-70550000D03*
X132790000Y-71540000D03*
X123820000Y-107820000D03*
X113840000Y-76830000D03*
X114240000Y-116760000D03*
%TO.N,VCC_5V*%
X162371800Y-137556300D03*
X170069600Y-70735400D03*
%TO.N,Net-(D7-K)*%
X121163100Y-115510000D03*
X120302400Y-107041900D03*
%TO.N,+5V*%
X113796900Y-129003800D03*
X111007800Y-121500100D03*
X110683600Y-116910300D03*
D26*
%TO.N,Row_1*%
X129990000Y-99270000D03*
X105380000Y-135330000D03*
%TO.N,Row_2*%
X105310000Y-129290000D03*
X129960000Y-90890000D03*
%TO.N,Row 5*%
X129710000Y-85120000D03*
X105740000Y-78600000D03*
%TO.N,Row 6*%
X131620000Y-77450000D03*
X105990000Y-70640000D03*
%TO.N,Row 7*%
X121680000Y-76790000D03*
X100750000Y-63970000D03*
D25*
%TO.N,I\u00B2C SCL*%
X177455000Y-49096300D03*
%TO.N,SW_3*%
X115568900Y-122034300D03*
%TO.N,SW_2*%
X120859800Y-117385700D03*
%TO.N,SW_0*%
X125367300Y-118062900D03*
D26*
%TO.N,LD3*%
X149770000Y-47415000D03*
%TO.N,LD4*%
X123779000Y-47415000D03*
%TO.N,LD6*%
X132442000Y-47415000D03*
%TO.N,LD7*%
X141106000Y-47415000D03*
D25*
%TO.N,Net-(R13-Pad2)*%
X127713800Y-117822000D03*
X126167200Y-128668000D03*
%TO.N,Net-(R14-Pad2)*%
X126167200Y-125653300D03*
X105313400Y-126577200D03*
%TO.N,Net-(R16-Pad2)*%
X128922800Y-111924900D03*
X110037700Y-110525200D03*
X126369700Y-116848000D03*
%TO.N,Sw_Col_0*%
X130535200Y-116879600D03*
%TO.N,Sw_Col_1*%
X132633000Y-113932500D03*
%TO.N,Sw_Col_2*%
X130535200Y-110985400D03*
%TO.N,Sw_Col_3*%
X140129900Y-108214400D03*
%TO.N,Ref_Comp1*%
X108821700Y-122657700D03*
X118635800Y-126130000D03*
X110007900Y-127160800D03*
%TO.N,Ref_Comp2*%
X109567500Y-108504100D03*
X121815600Y-110663900D03*
%TO.N,SR {slash}OE*%
X156366700Y-92974600D03*
%TO.N,ESP_Row 1*%
X135242800Y-109828300D03*
X136547400Y-95647400D03*
%TO.N,ESP_Row 3*%
X117203800Y-87776100D03*
X138313100Y-90357300D03*
%TO.N,ESP_Row 4*%
X137258800Y-92590300D03*
X118931400Y-92056600D03*
%TO.N,ESP_Row 5*%
X138911300Y-84461500D03*
X139129400Y-94248500D03*
%TO.N,ESP_Row 6*%
X139076900Y-95340500D03*
X136812700Y-78172200D03*
%TO.N,ESP_Row 7*%
X138842600Y-96765500D03*
X136421800Y-75970000D03*
X115010000Y-74585700D03*
%TO.N,ESP_Row 8*%
X114500600Y-87211400D03*
X139060000Y-97940000D03*
X114985000Y-88504500D03*
%TO.N,Lamp_Col_2*%
X138038900Y-74957500D03*
X134935800Y-61889100D03*
%TO.N,Lamp_Col_3*%
X138663000Y-61670100D03*
X138664700Y-75573700D03*
%TO.N,S_Data*%
X147916900Y-91996100D03*
%TO.N,S_latch*%
X148298300Y-95210600D03*
X147602300Y-78471900D03*
%TO.N,Fault_RST 1-4*%
X161118900Y-94918500D03*
X131973100Y-93583400D03*
%TO.N,S_CLK*%
X147602300Y-80575400D03*
X148125100Y-96222600D03*
%TO.N,Fault_RST 5-8*%
X132633000Y-101980300D03*
X132593700Y-79828100D03*
%TO.N,S_Data_1*%
X144000200Y-99310300D03*
X143670200Y-76156900D03*
D26*
%TO.N,Row_4*%
X113600000Y-103040000D03*
X122180000Y-98940000D03*
%TO.N,Row_3*%
X105740000Y-98380000D03*
X122250000Y-90970000D03*
%TD*%
D27*
%TO.N,Net-(R14-Pad2)*%
X129570000Y-117220000D02*
X129570000Y-120830000D01*
X127555305Y-115205305D02*
X129540000Y-117190000D01*
X127555305Y-115205305D02*
X129570000Y-117220000D01*
X129570000Y-120830000D02*
X126167200Y-124232800D01*
X126167200Y-124232800D02*
X126167200Y-125653300D01*
%TO.N,GND*%
X120660000Y-121810000D02*
X116790000Y-121810000D01*
X121870000Y-123020000D02*
X120660000Y-121810000D01*
%TO.N,VCC_5V*%
X163470000Y-126900000D02*
X186330000Y-126900000D01*
%TO.N,I\u00B2C SCL*%
X170676700Y-49850000D02*
X171430400Y-49096300D01*
X171430400Y-49096300D02*
X177455000Y-49096300D01*
X169400000Y-49850000D02*
X170676700Y-49850000D01*
%TO.N,SW_3*%
X115568900Y-122034300D02*
X112244900Y-125358300D01*
X112244900Y-125358300D02*
X98803400Y-125358300D01*
X98803400Y-125358300D02*
X98351700Y-125810000D01*
X96000000Y-125810000D02*
X98351700Y-125810000D01*
%TO.N,SW_2*%
X118277200Y-119968300D02*
X120859800Y-117385700D01*
X96000000Y-121850000D02*
X96000000Y-119968300D01*
X96000000Y-119968300D02*
X118277200Y-119968300D01*
%TO.N,SW_0*%
X121234400Y-113930000D02*
X125367300Y-118062900D01*
X96000000Y-113930000D02*
X121234400Y-113930000D01*
%TO.N,Net-(R14-Pad2)*%
X113798500Y-125185000D02*
X125698900Y-125185000D01*
X105313400Y-126577200D02*
X105855600Y-126035000D01*
X105855600Y-126035000D02*
X112948500Y-126035000D01*
X125698900Y-125185000D02*
X126167200Y-125653300D01*
X112948500Y-126035000D02*
X113798500Y-125185000D01*
%TO.N,Net-(R16-Pad2)*%
X111583400Y-112070900D02*
X121933200Y-112070900D01*
X125355000Y-115492700D02*
X128922800Y-111924900D01*
X110037700Y-110525200D02*
X111583400Y-112070900D01*
X126369700Y-116507400D02*
X126369700Y-116848000D01*
X121933200Y-112070900D02*
X125355000Y-115492700D01*
X125355000Y-115492700D02*
X126369700Y-116507400D01*
%TO.N,Sw_Col_0*%
X130535200Y-116879600D02*
X131665600Y-118010000D01*
X185060000Y-118010000D02*
X186330000Y-119280000D01*
X131665600Y-118010000D02*
X185060000Y-118010000D01*
%TO.N,Sw_Col_1*%
X134005500Y-115305000D02*
X184895000Y-115305000D01*
X184895000Y-115305000D02*
X186330000Y-116740000D01*
X132633000Y-113932500D02*
X134005500Y-115305000D01*
%TO.N,Sw_Col_2*%
X186330000Y-114200000D02*
X185254900Y-113124900D01*
X185254900Y-113124900D02*
X132674700Y-113124900D01*
X132674700Y-113124900D02*
X130535200Y-110985400D01*
%TO.N,Sw_Col_3*%
X185060000Y-110390000D02*
X186330000Y-111660000D01*
X140129900Y-108214400D02*
X142305500Y-110390000D01*
X142305500Y-110390000D02*
X185060000Y-110390000D01*
%TO.N,Ref_Comp1*%
X117605000Y-127160800D02*
X110007900Y-127160800D01*
X118635800Y-126130000D02*
X117605000Y-127160800D01*
%TO.N,Ref_Comp2*%
X111727300Y-110663900D02*
X109567500Y-108504100D01*
X121815600Y-110663900D02*
X111727300Y-110663900D01*
%TO.N,ESP_Row 3*%
X117203800Y-87776100D02*
X135731900Y-87776100D01*
X135731900Y-87776100D02*
X138313100Y-90357300D01*
%TO.N,ESP_Row 4*%
X136725100Y-92056600D02*
X118931400Y-92056600D01*
X137258800Y-92590300D02*
X136725100Y-92056600D01*
%TO.N,ESP_Row 7*%
X136421800Y-75970000D02*
X135037500Y-74585700D01*
X135037500Y-74585700D02*
X115010000Y-74585700D01*
%TO.N,ESP_Row 8*%
X139060000Y-97940000D02*
X123964000Y-97940000D01*
X123964000Y-97940000D02*
X114985000Y-88961000D01*
X114985000Y-88961000D02*
X114985000Y-88504500D01*
%TO.N,S_Data*%
X157991000Y-91996100D02*
X158445600Y-92450700D01*
X147916900Y-91996100D02*
X157991000Y-91996100D01*
X158445600Y-92450700D02*
X174740700Y-92450700D01*
X174740700Y-92450700D02*
X186330000Y-104040000D01*
%TO.N,S_latch*%
X148607900Y-95520200D02*
X161854900Y-95520200D01*
X161854900Y-95520200D02*
X162009700Y-95365400D01*
X148298300Y-95210600D02*
X148607900Y-95520200D01*
X175115400Y-95365400D02*
X186330000Y-106580000D01*
X162009700Y-95365400D02*
X175115400Y-95365400D01*
%TO.N,Fault_RST 1-4*%
X159783800Y-93583400D02*
X131973100Y-93583400D01*
X161118900Y-94918500D02*
X159783800Y-93583400D01*
%TO.N,S_CLK*%
X144151500Y-100375500D02*
X177585500Y-100375500D01*
X148125100Y-96222600D02*
X146195200Y-96222600D01*
X146195200Y-96222600D02*
X143391000Y-99026800D01*
X143391000Y-99615000D02*
X144151500Y-100375500D01*
X143391000Y-99026800D02*
X143391000Y-99615000D01*
X177585500Y-100375500D02*
X186330000Y-109120000D01*
%TO.N,I\u00B2C SCL Display*%
X161211300Y-106298700D02*
X144398500Y-106298700D01*
X163470000Y-104040000D02*
X161211300Y-106298700D01*
X141034700Y-102934900D02*
X136235100Y-102934900D01*
X136235100Y-102934900D02*
X135030000Y-104140000D01*
X144398500Y-106298700D02*
X141034700Y-102934900D01*
%TO.N,I\u00B2C SDA Display*%
X137570000Y-104140000D02*
X140196900Y-106766900D01*
X163283100Y-106766900D02*
X163470000Y-106580000D01*
X140196900Y-106766900D02*
X163283100Y-106766900D01*
%TO.N,Fault_RST 5-8*%
X162989700Y-101980300D02*
X163470000Y-101500000D01*
X132633000Y-101980300D02*
X162989700Y-101980300D01*
%TD*%
D28*
X190000000Y-44830000D02*
X190000000Y-138830000D01*
X90000000Y-138830000D02*
X90000000Y-44830000D01*
X187000000Y-141830000D02*
X93000000Y-141830000D01*
X93000000Y-141830000D02*
G75*
G02*
X90000000Y-138830000I0J3000000D01*
G01*
X187000000Y-41830000D02*
G75*
G02*
X190000000Y-44830000I0J-3000000D01*
G01*
X93000000Y-41830000D02*
X187000000Y-41830000D01*
X90000000Y-44830000D02*
G75*
G02*
X93000000Y-41830000I3000000J0D01*
G01*
X190000000Y-138830000D02*
G75*
G02*
X187000000Y-141830000I-3000000J0D01*
G01*
M02*
