%TF.GenerationSoftware,KiCad,Pcbnew,9.0.7*%
%TF.CreationDate,2026-04-09T04:11:56-05:00*%
%TF.ProjectId,Pinball Matrix board Rev 1,50696e62-616c-46c2-904d-617472697820,rev?*%
%TF.SameCoordinates,Original*%
%TF.FileFunction,Soldermask,Bot*%
%TF.FilePolarity,Negative*%
%FSLAX46Y46*%
G04 Gerber Fmt 4.6, Leading zero omitted, Abs format (unit mm)*
G04 Created by KiCad (PCBNEW 9.0.7) date 2026-04-09 04:11:56*
%MOMM*%
%LPD*%
G01*
G04 APERTURE LIST*
G04 Aperture macros list*
%AMRoundRect*
0 Rectangle with rounded corners*
0 $1 Rounding radius*
0 $2 $3 $4 $5 $6 $7 $8 $9 X,Y pos of 4 corners*
0 Add a 4 corners polygon primitive as box body*
4,1,4,$2,$3,$4,$5,$6,$7,$8,$9,$2,$3,0*
0 Add four circle primitives for the rounded corners*
1,1,$1+$1,$2,$3*
1,1,$1+$1,$4,$5*
1,1,$1+$1,$6,$7*
1,1,$1+$1,$8,$9*
0 Add four rect primitives between the rounded corners*
20,1,$1+$1,$2,$3,$4,$5,0*
20,1,$1+$1,$4,$5,$6,$7,0*
20,1,$1+$1,$6,$7,$8,$9,0*
20,1,$1+$1,$8,$9,$2,$3,0*%
G04 Aperture macros list end*
%ADD10C,1.724000*%
%ADD11R,1.700000X1.700000*%
%ADD12C,1.700000*%
%ADD13C,3.500000*%
%ADD14C,3.540000*%
%ADD15RoundRect,0.250000X-0.600000X-0.725000X0.600000X-0.725000X0.600000X0.725000X-0.600000X0.725000X0*%
%ADD16O,1.700000X1.950000*%
%ADD17C,7.000000*%
%ADD18R,1.500000X1.500000*%
%ADD19C,1.500000*%
%ADD20RoundRect,0.250000X1.800000X-1.330000X1.800000X1.330000X-1.800000X1.330000X-1.800000X-1.330000X0*%
%ADD21O,4.100000X3.160000*%
%ADD22RoundRect,0.250000X0.550000X0.550000X-0.550000X0.550000X-0.550000X-0.550000X0.550000X-0.550000X0*%
%ADD23C,1.600000*%
%ADD24RoundRect,0.250000X0.725000X-0.600000X0.725000X0.600000X-0.725000X0.600000X-0.725000X-0.600000X0*%
%ADD25O,1.950000X1.700000*%
%TA.AperFunction,Profile*%
%ADD26C,0.050000*%
%TD*%
G04 APERTURE END LIST*
D10*
%TO.C,F1*%
X130920000Y-68020000D03*
X125870000Y-66820000D03*
%TD*%
D11*
%TO.C,U8*%
X129950000Y-104140000D03*
D12*
X132490000Y-104140000D03*
X135030000Y-104140000D03*
X137570000Y-104140000D03*
D13*
X145360000Y-104210000D03*
X122310000Y-104210000D03*
X122310000Y-127260000D03*
D14*
X145360000Y-127260000D03*
%TD*%
D15*
%TO.C,J1*%
X138970000Y-65540000D03*
D16*
X141470000Y-65540000D03*
X143970000Y-65540000D03*
X146470000Y-65540000D03*
%TD*%
D11*
%TO.C,TP10*%
X157510000Y-46665000D03*
%TD*%
D17*
%TO.C,H2*%
X186170000Y-137840000D03*
%TD*%
%TO.C,H1*%
X186140000Y-45540000D03*
%TD*%
%TO.C,H3*%
X105220000Y-45810000D03*
%TD*%
D18*
%TO.C,U3*%
X163470000Y-91340000D03*
D19*
X163470000Y-93880000D03*
X163470000Y-96420000D03*
X163470000Y-98960000D03*
X163470000Y-101500000D03*
X163470000Y-104040000D03*
X163470000Y-106580000D03*
X163470000Y-109120000D03*
X163470000Y-111660000D03*
X163470000Y-114200000D03*
X163470000Y-116740000D03*
X163470000Y-119280000D03*
X163470000Y-121820000D03*
X163470000Y-124360000D03*
X163470000Y-126900000D03*
X186330000Y-126900000D03*
X186330000Y-124360000D03*
X186330000Y-121820000D03*
X186330000Y-119280000D03*
X186330000Y-116740000D03*
X186330000Y-114200000D03*
X186330000Y-111660000D03*
X186330000Y-109120000D03*
X186330000Y-106580000D03*
X186330000Y-104040000D03*
X186330000Y-101500000D03*
X186330000Y-98960000D03*
X186330000Y-96420000D03*
X186330000Y-93880000D03*
X186330000Y-91340000D03*
%TD*%
D20*
%TO.C,J3*%
X96000000Y-137690000D03*
D21*
X96000000Y-133730000D03*
X96000000Y-129770000D03*
X96000000Y-125810000D03*
X96000000Y-121850000D03*
X96000000Y-117890000D03*
X96000000Y-113930000D03*
X96000000Y-109970000D03*
X96000000Y-106010000D03*
X96000000Y-102050000D03*
X96000000Y-98090000D03*
X96000000Y-94130000D03*
X96000000Y-90170000D03*
%TD*%
D22*
%TO.C,C16*%
X120572400Y-66270000D03*
D23*
X118072400Y-66270000D03*
%TD*%
D24*
%TO.C,J2*%
X169400000Y-54850000D03*
D25*
X169400000Y-52350000D03*
X169400000Y-49850000D03*
X169400000Y-47350000D03*
%TD*%
D20*
%TO.C,J4*%
X96000000Y-82180000D03*
D21*
X96000000Y-78220000D03*
X96000000Y-74260000D03*
X96000000Y-70300000D03*
X96000000Y-66340000D03*
X96000000Y-62380000D03*
X96000000Y-58420000D03*
X96000000Y-54460000D03*
X96000000Y-50500000D03*
X96000000Y-46540000D03*
%TD*%
D26*
X190000000Y-44830000D02*
X190000000Y-138830000D01*
X90000000Y-138830000D02*
X90000000Y-44830000D01*
X187000000Y-141830000D02*
X93000000Y-141830000D01*
X93000000Y-141830000D02*
G75*
G02*
X90000000Y-138830000I0J3000000D01*
G01*
X187000000Y-41830000D02*
G75*
G02*
X190000000Y-44830000I0J-3000000D01*
G01*
X93000000Y-41830000D02*
X187000000Y-41830000D01*
X90000000Y-44830000D02*
G75*
G02*
X93000000Y-41830000I3000000J0D01*
G01*
X190000000Y-138830000D02*
G75*
G02*
X187000000Y-141830000I-3000000J0D01*
G01*
M02*
